Coordinates
version=1
nRows=6
nColumns=36
inDegrees=yes

Units are S.I. units (second, meters, Newtons, ...)
If the header above contains a line with 'inDegrees', this indicates whether rotational values are in degrees (yes) or radians (no).

endheader
time	pelvis_tilt	pelvis_list	pelvis_rotation	pelvis_tx	pelvis_ty	pelvis_tz	hip_flexion_r	hip_adduction_r	hip_rotation_r	knee_angle_r	knee_angle_r_beta	ankle_angle_r	subtalar_angle_r	mtp_angle_r	hip_flexion_l	hip_adduction_l	hip_rotation_l	knee_angle_l	knee_angle_l_beta	ankle_angle_l	subtalar_angle_l	mtp_angle_l	lumbar_extension	lumbar_bending	lumbar_rotation	arm_flex_r	arm_add_r	arm_rot_r	elbow_flex_r	pro_sup_r	arm_flex_l	arm_add_l	arm_rot_l	elbow_flex_l	pro_sup_l
      3.68750000	     -5.97917825	      0.26208351	      1.70156086	      0.34466125	      1.09124341	     -0.06104712	     11.84434876	     -6.57385869	     -1.29408298	     13.53886763	      0.23629782	    -18.37334928	    -14.77109381	     -7.49999987	     11.16391152	     -3.75562799	     -2.12616420	     13.45225643	      0.23478617	    -21.10636934	    -15.15594138	     -7.49999987	      1.91945525	      1.73422120	     -1.77670106	     10.92020087	    -21.77018861	     17.68609064	    115.21429357	     85.66389410	     29.84109303	    -26.25296120	     13.59955539	    124.09979272	     67.13898306
      3.69166670	     -5.98086717	      0.34118348	      2.01052940	      0.34413879	      1.08730729	     -0.06101411	     11.79460536	     -6.82068476	     -1.11422321	     13.66046971	      0.23842017	    -18.53074371	    -14.46144282	     -7.49999987	     11.25902264	     -3.80969757	     -2.81556842	     13.66115234	      0.23843209	    -21.69289771	    -15.70607176	     -7.49999987	      1.58475564	      1.89307240	     -1.78717741	     10.59738078	    -21.51892933	     17.21818148	    115.50848447	     85.52503656	     29.53828681	    -26.20708050	     13.59904478	    124.53210134	     67.25281347
      3.69583330	     -5.79444611	      0.38550258	      2.29374098	      0.34035274	      1.07414042	     -0.06537044	     11.78797146	     -7.16749573	     -1.22414153	     14.09318448	      0.24597247	    -18.51591613	    -14.23901986	     -7.49999987	     11.44308860	     -3.68944636	     -3.18206391	     14.10996533	      0.24626535	    -22.12504203	    -16.47962639	     -7.49999987	      0.96784168	      2.07871221	     -1.70617758	     10.58846109	    -21.63595086	     16.90639848	    115.65045658	     84.83802672	     29.59842657	    -26.06296630	     13.80231435	    124.84775736	     67.14666289
      3.70000000	     -5.62828999	      0.45947166	      2.37355883	      0.33982222	      1.06754684	     -0.06468599	     11.98967855	     -7.56730883	     -1.81104181	     14.78498984	      0.25804675	    -18.41919043	    -14.56202697	     -7.49999987	     11.54902391	     -3.52013258	     -3.22881336	     14.50079804	      0.25308667	    -22.47020039	    -17.10482295	     -7.49999987	      0.42571994	      2.11599067	     -1.68844738	     10.50102944	    -21.74119098	     16.84729886	    115.92015681	     83.94069549	     29.53589255	    -25.99928147	     13.99811519	    125.09353959	     66.93584861
      3.70416670	     -5.24871403	      0.32521344	      2.27179948	      0.33678463	      1.05277602	     -0.05961511	     12.72562818	     -7.54152415	     -1.34460332	     16.55551218	      0.28894820	    -18.30436356	    -16.07364764	     -7.49999987	     11.81021402	     -3.85009469	     -3.38992363	     15.67542408	      0.27358776	    -22.33805986	    -17.50886967	     -7.49999987	     -0.24970675	      2.12603279	     -1.68299243	     11.06644315	    -22.07775639	     16.62820803	    116.36290459	     83.03968273	     30.41145872	    -26.14298032	     14.12490445	    125.34152124	     66.78052830
      3.70833330	     -5.00021648	      0.28165041	      2.03014482	      0.33653091	      1.04752947	     -0.05914201	     13.29080039	     -7.66848825	     -1.75580059	     17.73102056	      0.30946469	    -17.81839131	    -16.15997253	     -7.49999987	     12.31118326	     -4.14861638	     -3.49813466	     17.07293025	      0.29797885	    -22.93729245	    -17.98040420	     -7.49999987	     -0.38468611	      2.04649138	     -1.45706780	     11.32327193	    -21.91223300	     16.26427456	    116.43344531	     85.37957272	     31.18945236	    -25.88276645	     14.18792145	    124.88767959	     67.73668326
